<svg width="52" height="64" viewBox="0 0 52 64" fill="none" xmlns="http://www.w3.org/2000/svg">
<path d="M49.9272 23.9746H46.0029V18.7422C46.0029 8.64403 37.7877 0.428711 27.6895 0.428711C17.5912 0.428711 9.37602 8.64403 9.37602 18.7422V23.9746H5.4517C4.72865 23.9746 4.14355 24.5597 4.14355 25.2828V57.9855C4.14355 60.8712 6.49018 63.2178 9.37602 63.2178H46.003C48.8888 63.2178 51.2354 60.8712 51.2354 57.9854V25.2828C51.2354 24.5597 50.6503 23.9746 49.9272 23.9746ZM31.6062 51.3005C31.647 51.6697 31.5283 52.0401 31.2805 52.3174C31.0326 52.5946 30.6775 52.753 30.3058 52.753H25.0733C24.7016 52.753 24.3464 52.5946 24.0986 52.3174C23.8507 52.0403 23.7319 51.6698 23.7729 51.3005L24.5981 43.8799C23.2581 42.9052 22.4571 41.3633 22.4571 39.6719C22.4571 36.7862 24.8037 34.4394 27.6896 34.4394C30.5754 34.4394 32.9221 36.7861 32.9221 39.6719C32.9221 41.3633 32.1211 42.9052 30.7811 43.8799L31.6062 51.3005ZM38.1543 23.9746H17.2247V18.7422C17.2247 12.9719 21.9193 8.27735 27.6895 8.27735C33.4597 8.27735 38.1543 12.9719 38.1543 18.7422V23.9746Z" fill="#F9E4D3"/>
<path d="M45.8794 23.9746H41.9551V18.7422C41.9551 8.64403 33.7399 0.428711 23.6416 0.428711C13.5434 0.428711 5.32817 8.64403 5.32817 18.7422V23.9746H1.40385C0.680795 23.9746 0.0957031 24.5597 0.0957031 25.2828V57.9855C0.0957031 60.8712 2.44232 63.2178 5.32817 63.2178H41.9552C44.8409 63.2178 47.1875 60.8712 47.1875 57.9854V25.2828C47.1875 24.5597 46.6024 23.9746 45.8794 23.9746ZM27.5583 51.3005C27.5992 51.6697 27.4805 52.0401 27.2326 52.3174C26.9848 52.5946 26.6296 52.753 26.2579 52.753H21.0254C20.6537 52.753 20.2986 52.5946 20.0507 52.3174C19.8029 52.0403 19.6841 51.6698 19.725 51.3005L20.5502 43.8799C19.2102 42.9052 18.4093 41.3633 18.4093 39.6719C18.4093 36.7862 20.7559 34.4394 23.6417 34.4394C26.5276 34.4394 28.8742 36.7861 28.8742 39.6719C28.8742 41.3633 28.0733 42.9052 26.7332 43.8799L27.5583 51.3005ZM34.1064 23.9746H13.1768V18.7422C13.1768 12.9719 17.8714 8.27735 23.6416 8.27735C29.4118 8.27735 34.1064 12.9719 34.1064 18.7422V23.9746Z" fill="#FCB662"/>
</svg>
